<svg width="38" height="37" viewBox="0 0 38 37" fill="none" xmlns="http://www.w3.org/2000/svg">
<g clip-path="url(#clip0_1_621)">
<path d="M31.2852 35.8425H6.71484C4.8819 35.8425 3.39062 34.3513 3.39062 32.5183V15.0286C3.39062 14.39 3.90826 13.8723 4.54688 13.8723C5.18549 13.8723 5.70312 14.39 5.70312 15.0286V32.5183C5.70312 33.0762 6.15695 33.53 6.71484 33.53H31.2852C31.843 33.53 32.2969 33.0762 32.2969 32.5183V15.0286C32.2969 14.39 32.8145 13.8723 33.4531 13.8723C34.0917 13.8723 34.6094 14.39 34.6094 15.0286V32.5183C34.6094 34.3512 33.1182 35.8425 31.2852 35.8425Z" fill="#222222"/>
<path d="M36.3437 19.0751C36.0478 19.0751 35.7519 18.9622 35.5262 18.7364L21.1461 4.35646C19.9628 3.17303 18.0373 3.17303 16.8538 4.35646L2.47385 18.7365C2.02233 19.1881 1.29021 19.1881 0.838691 18.7365C0.387103 18.285 0.387103 17.5528 0.838691 17.1013L15.2187 2.72123C17.3037 0.636218 20.6963 0.636218 22.7813 2.72123L37.1613 17.1012C37.6129 17.5528 37.6129 18.2849 37.1613 18.7364C36.9356 18.9622 36.6397 19.0751 36.3437 19.0751Z" fill="#222222"/>
<path d="M23.625 35.8425H14.375C13.7364 35.8425 13.2188 35.3248 13.2188 34.6863V24.4246C13.2188 22.4322 14.8397 20.8113 16.832 20.8113H21.168C23.1603 20.8113 24.7812 22.4322 24.7812 24.4246V34.6863C24.7812 35.3248 24.2636 35.8425 23.625 35.8425ZM15.5312 33.53H22.4688V24.4246C22.4688 23.7073 21.8852 23.1238 21.168 23.1238H16.832C16.1148 23.1238 15.5312 23.7073 15.5312 24.4246V33.53Z" fill="#222222"/>
</g>
<defs>
<clipPath id="clip0_1_621">
<rect width="37" height="37" fill="white" transform="translate(0.5)"/>
</clipPath>
</defs>
</svg>
