<svg width="101" height="101" viewBox="0 0 101 101" fill="none" xmlns="http://www.w3.org/2000/svg">
<path fill-rule="evenodd" clip-rule="evenodd" d="M38.0861 9.15511C54.0833 9.15511 67.0516 22.1234 67.0516 38.1206C67.0516 54.1179 54.0833 67.0862 38.0861 67.0862C34.6093 67.0862 31.2843 66.4754 28.2067 65.3588C26.8501 64.8667 25.3416 64.7566 23.8702 65.118C19.918 66.0888 15.8835 66.7045 11.8146 66.9562C13.3447 62.9249 13.8733 58.5668 13.3354 54.2618C13.2158 53.3042 12.9026 52.4644 12.5305 51.7694C10.3556 47.7069 9.12059 43.0641 9.12059 38.1206C9.12059 22.1234 22.0889 9.15511 38.0861 9.15511ZM75.3275 38.1206C75.3275 17.5528 58.654 0.879242 38.0861 0.879242C17.5183 0.879242 0.844727 17.5528 0.844727 38.1206C0.844727 44.3966 2.4005 50.3213 5.15072 55.5182C5.57998 59.3493 4.78454 63.2304 2.86127 66.5961L2.69155 66.8931C0.535207 70.6667 3.25997 75.362 7.60625 75.362C13.6801 75.362 19.7192 74.6383 25.5975 73.2152C29.5067 74.6064 33.7126 75.362 38.0861 75.362C58.654 75.362 75.3275 58.6885 75.3275 38.1206ZM85.0732 35.0508C83.3264 36.5243 83.1049 39.1349 84.5784 40.8818C89.1361 46.2847 91.8792 53.2563 91.8792 60.8793C91.8792 66.1865 90.5504 71.1711 88.2108 75.5307C87.8357 76.2297 87.5244 77.0685 87.404 78.0206C86.8124 82.6992 87.4178 87.4387 89.1448 91.7989C84.6497 91.546 80.192 90.8763 75.829 89.8008C74.3563 89.4378 72.8437 89.5472 71.4825 90.0438C68.1699 91.2525 64.5892 91.9138 60.8447 91.9138C53.2218 91.9138 46.2502 89.1707 40.8472 84.6129C39.1004 83.1394 36.4898 83.3609 35.0163 85.1077C33.5427 86.8546 33.7643 89.4652 35.5111 90.9387C42.351 96.7086 51.1967 100.19 60.8447 100.19C65.4887 100.19 69.9531 99.3826 74.0996 97.8977C80.3491 99.417 86.7707 100.19 93.2295 100.19C97.6488 100.19 100.419 95.4154 98.2268 91.5784L98.2268 91.5783L98.0465 91.2628C95.9676 87.6246 95.1126 83.4273 95.587 79.2866C98.5042 73.7909 100.155 67.5218 100.155 60.8793C100.155 51.2312 96.674 42.3855 90.9042 35.5456C89.4306 33.7988 86.82 33.5772 85.0732 35.0508ZM21.5344 42.2586C23.8197 42.2586 25.6723 40.406 25.6723 38.1206C25.6723 35.8353 23.8197 33.9827 21.5344 33.9827C19.2491 33.9827 17.3965 35.8353 17.3965 38.1206C17.3965 40.406 19.2491 42.2586 21.5344 42.2586ZM42.224 38.1206C42.224 40.406 40.3714 42.2586 38.0861 42.2586C35.8008 42.2586 33.9482 40.406 33.9482 38.1206C33.9482 35.8353 35.8008 33.9827 38.0861 33.9827C40.3714 33.9827 42.224 35.8353 42.224 38.1206ZM54.6378 42.2586C56.9232 42.2586 58.7758 40.406 58.7758 38.1206C58.7758 35.8353 56.9232 33.9827 54.6378 33.9827C52.3525 33.9827 50.4999 35.8353 50.4999 38.1206C50.4999 40.406 52.3525 42.2586 54.6378 42.2586Z" fill="black"/>
</svg>
