<svg width="100" height="100" viewBox="0 0 100 100" fill="none" xmlns="http://www.w3.org/2000/svg">
<path fill-rule="evenodd" clip-rule="evenodd" d="M60.5703 6.10392C58.3515 2.7285 54.5307 0.500031 50.1895 0.500031C45.8481 0.500031 42.0273 2.72855 39.8085 6.10403C24.2921 10.5987 12.9482 24.9143 12.9482 41.8794V57.0711C10.3604 60.2691 8.8103 64.3415 8.8103 68.7759C8.8103 79.0598 17.1471 87.3966 27.431 87.3966L37.7758 87.3966C37.7758 90.6889 39.0837 93.8465 41.4117 96.1745C43.7398 98.5025 46.8973 99.8104 50.1896 99.8104C53.482 99.8104 56.6395 98.5025 58.9675 96.1745C61.2955 93.8465 62.6034 90.6889 62.6034 87.3966L72.9482 87.3966C83.2322 87.3966 91.5689 79.0598 91.5689 68.7759C91.5689 64.3415 90.0189 60.2691 87.431 57.0711V41.8793C87.431 24.9141 76.0869 10.5984 60.5703 6.10392ZM21.2241 57.0711C21.2241 58.9662 20.5737 60.8038 19.3816 62.277C17.9424 64.0556 17.0862 66.3045 17.0862 68.7759C17.0862 74.4892 21.7177 79.1208 27.431 79.1208H72.9482C78.6615 79.1208 83.2931 74.4892 83.2931 68.7759C83.2931 66.3045 82.4368 64.0556 80.9976 62.277C79.8055 60.8038 79.1551 58.9662 79.1551 57.0711V41.8793C79.1551 25.8821 66.1868 12.9138 50.1896 12.9138C34.1924 12.9138 21.2241 25.8821 21.2241 41.8794V57.0711ZM47.2637 90.3226C46.4876 89.5466 46.0517 88.4941 46.0517 87.3966H54.3275C54.3275 88.4941 53.8916 89.5466 53.1156 90.3226C52.3396 91.0986 51.2871 91.5345 50.1896 91.5345C49.0922 91.5345 48.0397 91.0986 47.2637 90.3226Z" fill="black"/>
</svg>
